<?xml version="1.0" encoding="UTF-8" standalone="no"?>
<!-- Created with Inkscape (http://www.inkscape.org/) -->

<svg
   xmlns:dc="http://purl.org/dc/elements/1.1/"
   xmlns:cc="http://creativecommons.org/ns#"
   xmlns:rdf="http://www.w3.org/1999/02/22-rdf-syntax-ns#"
   xmlns:svg="http://www.w3.org/2000/svg"
   xmlns="http://www.w3.org/2000/svg"
   xmlns:sodipodi="http://sodipodi.sourceforge.net/DTD/sodipodi-0.dtd"
   xmlns:inkscape="http://www.inkscape.org/namespaces/inkscape"
   version="1.1"
   id="svg2"
   xml:space="preserve"
   width="47.054279"
   height="76.941971"
   viewBox="0 0 47.05428 76.94197"
   sodipodi:docname="flecha-iz.svg"
   inkscape:version="0.92.4 (unknown)"><metadata
     id="metadata8"><rdf:RDF><cc:Work
         rdf:about=""><dc:format>image/svg+xml</dc:format><dc:type
           rdf:resource="http://purl.org/dc/dcmitype/StillImage" /><dc:title></dc:title></cc:Work></rdf:RDF></metadata><defs
     id="defs6" /><sodipodi:namedview
     pagecolor="#ffffff"
     bordercolor="#666666"
     borderopacity="1"
     objecttolerance="10"
     gridtolerance="10"
     guidetolerance="10"
     inkscape:pageopacity="0"
     inkscape:pageshadow="2"
     inkscape:window-width="1600"
     inkscape:window-height="871"
     id="namedview4"
     showgrid="false"
     inkscape:zoom="0.77761177"
     inkscape:cx="-72.746659"
     inkscape:cy="-117.62224"
     inkscape:window-x="0"
     inkscape:window-y="0"
     inkscape:window-maximized="1"
     inkscape:current-layer="g10" /><g
     id="g10"
     inkscape:groupmode="layer"
     inkscape:label="ink_ext_XXXXXX"
     transform="matrix(1.3333333,0,0,-1.3333333,-287.74421,449.55678)"><path
       inkscape:connector-curvature="0"
       id="path41"
       style="fill:#008dd3;fill-opacity:1;fill-rule:nonzero;stroke:none;stroke-width:0.1"
       d="m 215.80874,308.314 c 0.001,0.113 -0.003,0.225 0.002,0.338 0.067,1.871 0.771,3.728 2.138,5.214 l 19.034,20.677 c 3.042,3.305 8.187,3.517 11.491,0.475 3.305,-3.042 3.518,-8.186 0.476,-11.491 l -14.004,-15.213 14.004,-15.213 c 3.042,-3.304 2.829,-8.449 -0.476,-11.491 -3.304,-3.042 -8.449,-2.828 -11.491,0.475 l -19.034,20.678 c -1.367,1.485 -2.071,3.343 -2.138,5.213 -0.005,0.113 -0.001,0.226 -0.002,0.338" /></g></svg>