<?xml version="1.0" encoding="UTF-8" standalone="no"?>
<!-- Created with Inkscape (http://www.inkscape.org/) -->

<svg
   xmlns:dc="http://purl.org/dc/elements/1.1/"
   xmlns:cc="http://creativecommons.org/ns#"
   xmlns:rdf="http://www.w3.org/1999/02/22-rdf-syntax-ns#"
   xmlns:svg="http://www.w3.org/2000/svg"
   xmlns="http://www.w3.org/2000/svg"
   xmlns:xlink="http://www.w3.org/1999/xlink"
   xmlns:sodipodi="http://sodipodi.sourceforge.net/DTD/sodipodi-0.dtd"
   xmlns:inkscape="http://www.inkscape.org/namespaces/inkscape"
   version="1.1"
   id="svg2"
   xml:space="preserve"
   width="1031.9767"
   height="253.2652"
   viewBox="0 0 1031.9766 253.26519"
   sodipodi:docname="libro.svg"
   inkscape:version="0.92.4 (unknown)"><metadata
     id="metadata8"><rdf:RDF><cc:Work
         rdf:about=""><dc:format>image/svg+xml</dc:format><dc:type
           rdf:resource="http://purl.org/dc/dcmitype/StillImage" /><dc:title /></cc:Work></rdf:RDF></metadata><defs
     id="defs6"><clipPath
       id="SVGID_2_"><use
         xlink:href="#SVGID_1_"
         overflow="visible"
         id="use65"
         style="overflow:visible"
         x="0"
         y="0"
         width="100%"
         height="100%" /></clipPath><clipPath
       id="SVGID_2_-3"><use
         xlink:href="#SVGID_1_"
         overflow="visible"
         id="use65-6"
         style="overflow:visible"
         x="0"
         y="0"
         width="100%"
         height="100%" /></clipPath><clipPath
       id="SVGID_2_-3-6"><use
         xlink:href="#SVGID_1_"
         overflow="visible"
         id="use65-6-2"
         style="overflow:visible"
         x="0"
         y="0"
         width="100%"
         height="100%" /></clipPath><clipPath
       id="SVGID_2_-4"><use
         xlink:href="#SVGID_1_"
         overflow="visible"
         id="use65-9"
         style="overflow:visible"
         x="0"
         y="0"
         width="100%"
         height="100%" /></clipPath><defs
       id="defs63"><path
         inkscape:connector-curvature="0"
         d="m 635.3,320.4 c 0,0 -13.1,-6.9 6.9,-25.6 20,-18.7 114.5,-61.3 140.8,-64.4 26.3,-3.1 58.8,6.9 58.8,6.9 0,0 -1.3,14.4 -15,31.3 -13.7,16.9 -115.7,62.6 -142,66.9 -26.3,4.3 -49.5,-15.1 -49.5,-15.1 z"
         id="SVGID_1_" /></defs><clipPath
       id="SVGID_2_-8"><use
         height="100%"
         width="100%"
         y="0"
         x="0"
         style="overflow:visible"
         id="use65-7"
         overflow="visible"
         xlink:href="#SVGID_1_" /></clipPath><defs
       id="defs357"><path
         inkscape:connector-curvature="0"
         d="m 1050.6,565.5 c 0,0 -6.8,14.3 12.4,14.3 19.3,0 77.8,13.1 150.6,-28.6 72.8,-41.7 73.4,-63.5 69.7,-79.7 -3.7,-16.2 -28.6,-41.1 -80.3,-23.7 -51.7,17.4 -73.4,37.3 -94.6,64.1 -21,26.9 -52.8,43.1 -57.8,53.6 z"
         id="SVGID_3_" /></defs><clipPath
       id="SVGID_4_"><use
         height="100%"
         width="100%"
         y="0"
         x="0"
         style="overflow:visible"
         id="use359"
         overflow="visible"
         xlink:href="#SVGID_3_" /></clipPath><defs
       id="defs675"><path
         inkscape:connector-curvature="0"
         d="m 319.4,829.4 c 0,0 36.8,-0.8 31,-20.1 -5.9,-19.3 -24.3,-29.3 -60.3,-54.4 -36,-25.1 -117.2,-54.4 -152.4,-52.8 -35.2,1.6 -70.4,10.9 -61.2,43.6 9.2,32.7 86.2,61.1 110.5,72.8 24.3,11.7 53.7,25.2 132.4,10.9 z"
         id="SVGID_5_" /></defs><clipPath
       id="SVGID_6_"><use
         height="100%"
         width="100%"
         y="0"
         x="0"
         style="overflow:visible"
         id="use677"
         overflow="visible"
         xlink:href="#SVGID_5_" /></clipPath><clipPath
       id="SVGID_2_-3-1"><use
         height="100%"
         width="100%"
         y="0"
         x="0"
         style="overflow:visible"
         id="use65-6-7"
         overflow="visible"
         xlink:href="#SVGID_1_" /></clipPath><path
       inkscape:connector-curvature="0"
       d="m 635.3,320.4 c 0,0 -13.1,-6.9 6.9,-25.6 20,-18.7 114.5,-61.3 140.8,-64.4 26.3,-3.1 58.8,6.9 58.8,6.9 0,0 -1.3,14.4 -15,31.3 -13.7,16.9 -115.7,62.6 -142,66.9 -26.3,4.3 -49.5,-15.1 -49.5,-15.1 z"
       id="path3290" /><path
       inkscape:connector-curvature="0"
       d="m 1050.6,565.5 c 0,0 -6.8,14.3 12.4,14.3 19.3,0 77.8,13.1 150.6,-28.6 72.8,-41.7 73.4,-63.5 69.7,-79.7 -3.7,-16.2 -28.6,-41.1 -80.3,-23.7 -51.7,17.4 -73.4,37.3 -94.6,64.1 -21,26.9 -52.8,43.1 -57.8,53.6 z"
       id="path3292" /><path
       inkscape:connector-curvature="0"
       d="m 319.4,829.4 c 0,0 36.8,-0.8 31,-20.1 -5.9,-19.3 -24.3,-29.3 -60.3,-54.4 -36,-25.1 -117.2,-54.4 -152.4,-52.8 -35.2,1.6 -70.4,10.9 -61.2,43.6 9.2,32.7 86.2,61.1 110.5,72.8 24.3,11.7 53.7,25.2 132.4,10.9 z"
       id="path3294" /></defs><sodipodi:namedview
     pagecolor="#ffffff"
     bordercolor="#666666"
     inkscape:document-rotation="0"
     borderopacity="1"
     objecttolerance="10"
     gridtolerance="10"
     guidetolerance="10"
     inkscape:pageopacity="0"
     inkscape:pageshadow="2"
     inkscape:window-width="1280"
     inkscape:window-height="691"
     id="namedview4"
     showgrid="false"
     inkscape:zoom="0.40540572"
     inkscape:cx="212.90722"
     inkscape:cy="365.66956"
     inkscape:window-x="0"
     inkscape:window-y="0"
     inkscape:window-maximized="1"
     inkscape:current-layer="g10"
     fit-margin-top="0"
     fit-margin-left="0"
     fit-margin-right="0"
     fit-margin-bottom="0" /><g
     id="g10"
     inkscape:groupmode="layer"
     inkscape:label="ink_ext_XXXXXX"
     transform="matrix(1.3333333,0,0,-1.3333333,-1543.0841,526.41927)"><g
       id="g2564"
       transform="translate(-961.69187,-105.93801)"><path
         d="m 2692.7355,470.55747 c 0.027,0.022 -1.529,4.683 -6.2419,6.918 -4.686,2.227 -9.1541,1.138 -9.1541,1.167 1.4531,2.767 2.7691,5.583 3.9501,8.443 5.357,-2.212 10.717,-4.421 16.074,-6.633 -1.382,-3.349 -2.926,-6.652 -4.6281,-9.895"
         style="fill:#8d632c;fill-opacity:1;fill-rule:nonzero;stroke:none;stroke-width:0.1"
         id="path24"
         inkscape:connector-curvature="0" /><path
         d="m 2505.0386,385.12347 c 0,0 -14.521,115.629 263.256,115.264 l -263.256,-115.264"
         style="fill:#fcf390;fill-opacity:1;fill-rule:nonzero;stroke:none;stroke-width:0.1"
         id="path232"
         inkscape:connector-curvature="0" /><path
         d="m 2509.6826,381.14547 c 0,0 -14.52,115.629 263.2559,115.263 l -263.2559,-115.263"
         style="fill:#f3e680;fill-opacity:1;fill-rule:nonzero;stroke:none;stroke-width:0.1"
         id="path234"
         inkscape:connector-curvature="0" /><path
         d="m 2242.0386,496.40947 c 0,0 -11.3031,-8.95 -18.356,-19.801 0,0 -18.7169,-12.207 -29.5677,-29.297 0,0 269.6387,-20.887 315.2107,-83.821 l 0.226,13.247 -10.534,19.57 c 0,0 -21.159,76.232 -189.344,96.848 l -67.635,3.254"
         style="fill:#fbfcde;fill-opacity:1;fill-rule:nonzero;stroke:none;stroke-width:0.1"
         id="path240"
         inkscape:connector-curvature="0" /><path
         d="m 2773.5106,496.40947 c 0,0 11.302,-8.95 18.355,-19.801 0,0 18.7179,-12.207 29.5679,-29.297 0,0 -269.6369,-20.887 -315.2109,-83.821 l -0.2261,13.247 10.535,19.57 c 0,0 21.1581,76.232 189.3431,96.848 l 67.636,3.254"
         style="fill:#fbfcde;fill-opacity:1;fill-rule:nonzero;stroke:none;stroke-width:0.1"
         id="path242"
         inkscape:connector-curvature="0" /><path
         d="m 2509.2986,370.92947 -6.4581,0.835 c 0.02,0.165 1.7771,16.546 -15.304,35.817 -26.4859,29.881 -95.8789,65.501 -276.0599,65.501 v 6.51 c 183.1539,0 254.042,-37.013 281.259,-68.063 18.839,-21.493 16.664,-39.83 16.563,-40.6"
         style="fill:#b88736;fill-opacity:1;fill-rule:nonzero;stroke:none;stroke-width:0.1"
         id="path244"
         inkscape:connector-curvature="0" /><path
         d="m 2509.3256,371.32047 -6.5101,0.063 c 0,0.297 -0.2239,30.064 -33.451,59.872 -31.007,27.816 -97.73,61.323 -239.5079,62.986 l 0.076,6.511 c 63.619,-0.747 117.842,-7.889 161.1619,-21.228 34.877,-10.738 62.8541,-25.511 83.154,-43.907 35.0341,-31.746 35.091,-62.983 35.0771,-64.297"
         style="fill:#b88736;fill-opacity:1;fill-rule:nonzero;stroke:none;stroke-width:0.1"
         id="path246"
         inkscape:connector-curvature="0" /><path
         d="m 2502.5876,376.73747 c 0,0 -26.972,74.503 -316.1665,74.503 0,0 -10.4152,-9.435 -21.1585,-26.782 249.601,-2.4 308.4209,-43.178 319.056,-53.102 5.4539,2.168 11.5149,4.007 18.269,5.381"
         style="fill:#fcf390;fill-opacity:1;fill-rule:nonzero;stroke:none;stroke-width:0.1"
         id="path248"
         inkscape:connector-curvature="0" /><path
         d="m 2145.9582,378.09047 c -2.2066,-9.41 -3.625,-19.639 -3.8921,-30.61 23.4527,0.425 83.3865,1.387 143.8804,1.353 113.567,-0.115 149.0861,-3.72 161.1271,-6.689 2.299,3.41 5.1049,6.953 8.5199,10.443 -14.883,6.861 -76.531,25.505 -306.8299,25.505 -0.9301,0 -1.8699,-10e-4 -2.8054,-0.002"
         style="fill:#fcf390;fill-opacity:1;fill-rule:nonzero;stroke:none;stroke-width:0.1"
         id="path250"
         inkscape:connector-curvature="0" /><path
         d="m 2141.9882,340.45347 v -20.86 h 295.1153 c 0,0 1.2051,7.046 6.1901,16.304 -12.365,2.525 -49.392,5.807 -158.0471,5.904 -60.3789,0.07 -120.0711,-0.913 -143.2582,-1.348"
         style="fill:#fcf390;fill-opacity:1;fill-rule:nonzero;stroke:none;stroke-width:0.1"
         id="path252"
         inkscape:connector-curvature="0" /><path
         d="m 2161.1718,417.46047 c -5.0245,-9.114 -9.8276,-19.938 -13.376,-32.337 239.0118,0.044 299.3328,-20.276 313.2248,-27.509 4.5049,3.791 9.832,7.394 16.1279,10.543 -6.1239,4.703 -21.3769,13.976 -54.7489,23.167 -41.571,11.448 -120.25,24.999 -261.2278,26.136"
         style="fill:#fcf390;fill-opacity:1;fill-rule:nonzero;stroke:none;stroke-width:0.1"
         id="path254"
         inkscape:connector-curvature="0" /><path
         d="m 2142.0661,347.48047 c -0.031,-1.233 -0.078,-2.458 -0.078,-3.711 v -3.316 c 23.1872,0.435 82.8794,1.418 143.2583,1.348 108.655,-0.097 145.682,-3.379 158.047,-5.904 1.0751,1.995 2.327,4.094 3.7801,6.247 -12.041,2.969 -47.5601,6.574 -161.1271,6.689 -60.4939,0.034 -120.4278,-0.928 -143.8804,-1.353"
         style="fill:#b88736;fill-opacity:1;fill-rule:nonzero;stroke:none;stroke-width:0.1"
         id="path256"
         inkscape:connector-curvature="0" /><path
         d="m 2147.7958,385.12347 c -0.6563,-2.293 -1.2743,-4.633 -1.8375,-7.033 0.9355,0.001 1.8753,0.002 2.8053,0.002 230.299,0 291.9469,-18.644 306.83,-25.505 1.661,1.696 3.467,3.379 5.427,5.027 -13.892,7.233 -74.213,27.553 -313.2248,27.509"
         style="fill:#b88736;fill-opacity:1;fill-rule:nonzero;stroke:none;stroke-width:0.1"
         id="path258"
         inkscape:connector-curvature="0" /><path
         d="m 2165.2626,424.45847 c -1.3673,-2.205 -2.7348,-4.539 -4.0908,-6.998 140.9778,-1.137 219.6568,-14.688 261.2278,-26.136 33.372,-9.191 48.625,-18.464 54.7489,-23.167 2.2621,1.131 4.6531,2.198 7.1701,3.199 -10.6351,9.924 -69.455,50.702 -319.056,53.102"
         style="fill:#b88736;fill-opacity:1;fill-rule:nonzero;stroke:none;stroke-width:0.1"
         id="path260"
         inkscape:connector-curvature="0" /><path
         d="m 2509.5516,376.73747 c 0,0 26.9719,74.503 316.1679,74.503 0,0 10.413,-9.435 21.1591,-26.782 -249.602,-2.4 -308.4221,-43.178 -319.0571,-53.102 -5.4539,2.168 -11.515,4.007 -18.2699,5.381"
         style="fill:#fcf390;fill-opacity:1;fill-rule:nonzero;stroke:none;stroke-width:0.1"
         id="path262"
         inkscape:connector-curvature="0" /><path
         d="m 2866.1806,378.09047 c 2.207,-9.41 3.625,-19.639 3.895,-30.61 -23.453,0.425 -83.3891,1.387 -143.884,1.353 -113.565,-0.115 -149.086,-3.72 -161.125,-6.689 -2.3001,3.41 -5.1061,6.953 -8.52,10.443 14.8829,6.861 76.5299,25.505 306.831,25.505 0.928,0 1.87,-10e-4 2.803,-0.002"
         style="fill:#fcf390;fill-opacity:1;fill-rule:nonzero;stroke:none;stroke-width:0.1"
         id="path264"
         inkscape:connector-curvature="0" /><path
         d="m 2870.1505,340.45347 v -20.86 h -295.1149 c 0,0 -1.2041,7.046 -6.19,16.304 12.366,2.525 49.393,5.807 158.0479,5.904 60.3771,0.07 120.0711,-0.913 143.257,-1.348"
         style="fill:#fcf390;fill-opacity:1;fill-rule:nonzero;stroke:none;stroke-width:0.1"
         id="path266"
         inkscape:connector-curvature="0" /><path
         d="m 2850.9675,417.46047 c 5.0251,-9.114 9.83,-19.938 13.3781,-32.337 -239.013,0.044 -299.335,-20.276 -313.2261,-27.509 -4.507,3.791 -9.8319,7.394 -16.128,10.543 6.1241,4.703 21.378,13.976 54.7491,23.167 41.5709,11.448 120.249,24.999 261.2269,26.136"
         style="fill:#fcf390;fill-opacity:1;fill-rule:nonzero;stroke:none;stroke-width:0.1"
         id="path268"
         inkscape:connector-curvature="0" /><path
         d="m 2870.0756,347.48047 c 0.029,-1.233 0.075,-2.458 0.075,-3.711 v -3.316 c -23.1859,0.435 -82.8799,1.418 -143.257,1.348 -108.6549,-0.097 -145.6819,-3.379 -158.0479,-5.904 -1.075,1.995 -2.3271,4.094 -3.779,6.247 12.0389,2.969 47.56,6.574 161.125,6.689 60.4949,0.034 120.431,-0.928 143.884,-1.353"
         style="fill:#b88736;fill-opacity:1;fill-rule:nonzero;stroke:none;stroke-width:0.1"
         id="path270"
         inkscape:connector-curvature="0" /><path
         d="m 2864.3456,385.12347 c 0.6549,-2.293 1.273,-4.633 1.835,-7.033 -0.933,0.001 -1.875,0.002 -2.803,0.002 -230.3011,0 -291.9481,-18.644 -306.831,-25.505 -1.661,1.696 -3.467,3.379 -5.4271,5.027 13.8911,7.233 74.2131,27.553 313.2261,27.509"
         style="fill:#b88736;fill-opacity:1;fill-rule:nonzero;stroke:none;stroke-width:0.1"
         id="path272"
         inkscape:connector-curvature="0" /><path
         d="m 2846.8786,424.45847 c 1.367,-2.205 2.7339,-4.539 4.0889,-6.998 -140.978,-1.137 -219.656,-14.688 -261.2269,-26.136 -33.3711,-9.191 -48.625,-18.464 -54.7491,-23.167 -2.261,1.131 -4.6529,2.198 -7.1699,3.199 10.6349,9.924 69.455,50.702 319.057,53.102"
         style="fill:#b88736;fill-opacity:1;fill-rule:nonzero;stroke:none;stroke-width:0.1"
         id="path274"
         inkscape:connector-curvature="0" /><path
         d="m 2506.1215,370.92947 6.4571,0.835 c -0.019,0.165 -1.7761,16.546 15.305,35.817 26.485,29.881 95.878,65.501 276.06,65.501 v 6.51 c -183.154,0 -254.0431,-37.013 -281.258,-68.063 -18.84,-21.493 -16.666,-39.83 -16.5641,-40.6"
         style="fill:#b88736;fill-opacity:1;fill-rule:nonzero;stroke:none;stroke-width:0.1"
         id="path276"
         inkscape:connector-curvature="0" /><path
         d="m 2506.0936,371.32047 6.5099,0.063 c -9e-4,0.297 0.2251,30.064 33.451,59.872 31.0081,27.816 97.73,61.323 239.5081,62.986 l -0.076,6.511 c -63.618,-0.747 -117.842,-7.889 -161.161,-21.228 -34.877,-10.738 -62.854,-25.511 -83.1531,-43.907 -35.034,-31.746 -35.0939,-62.983 -35.0789,-64.297"
         style="fill:#b88736;fill-opacity:1;fill-rule:nonzero;stroke:none;stroke-width:0.1"
         id="path278"
         inkscape:connector-curvature="0" /><path
         d="m 2574.7246,328.38347 c -7.616,35.324 -38.1631,52.998 -68.7281,53.027 h -9e-4 c -30.565,-0.029 -61.112,-17.703 -68.728,-53.027 H 2119.005 v -17.5799 h 316.4416 17.5809 c 0,9.6989 1.5661,18.2929 5.449,25.0999 9.8941,17.345 25.8421,-9.125 25.8421,-9.125 h -10.8001 v -10.551 c 0,-1.387 0.5301,-2.777 1.5891,-3.836 1.06,-1.059 2.448,-1.5879 3.836,-1.5879 h 54.2539 c 1.3881,0 2.7761,0.5289 3.8351,1.5879 1.06,1.059 1.59,2.449 1.59,3.836 v 10.551 h -10.949 c 0,0 15.947,26.47 25.842,9.125 3.882,-6.807 5.449,-15.401 5.449,-25.0999 h 17.5809 316.442 v 17.5799 h -318.2629"
         style="fill:#414957;fill-opacity:1;fill-rule:nonzero;stroke:none;stroke-width:0.1"
         id="path280"
         inkscape:connector-curvature="0" /><path
         d="m 2181.3434,328.38347 -62.3384,8.249 v -25.8289 h 62.3384 v 17.5799"
         style="fill:#e83735;fill-opacity:1;fill-rule:nonzero;stroke:none;stroke-width:0.1"
         id="path282"
         inkscape:connector-curvature="0" /><path
         d="m 2830.6496,328.38347 62.3379,8.249 v -25.8289 h -62.3379 v 17.5799"
         style="fill:#e83735;fill-opacity:1;fill-rule:nonzero;stroke:none;stroke-width:0.1"
         id="path284"
         inkscape:connector-curvature="0" /></g></g></svg>